<?xml version="1.0" encoding="utf-8"?>
<!-- Generator: Adobe Illustrator 22.0.1, SVG Export Plug-In . SVG Version: 6.00 Build 0)  -->
<svg version="1.1" id="Layer_1" xmlns="http://www.w3.org/2000/svg" xmlns:xlink="http://www.w3.org/1999/xlink" x="0px" y="0px"
	 viewBox="0 0 402 414" style="enable-background:new 0 0 402 414;" xml:space="preserve">
<style type="text/css">
	.st0{fill:#666666;}
</style>
<g>
	<path class="st0" d="M52.2,392.1c-17.2,0-33.4-6-45.6-17c-2.9-2.6-3.2-7.1-0.7-10c10.3-12,17.9-26.2,21.9-41.1
		c0.8-3.6,5.6-21.6,23.5-34.3c9.6-6.9,21-10.6,32.2-10.6c3.2,0,6.4,0.3,9.5,0.9c2.3,0.5,4.7,1.1,6.9,1.9l1.8,0.7l0.7-1.8
		c14-33.5,56.5-88.1,111-142.6c37.2-37.2,75.2-69.5,106.8-90.7c25.3-17,43.6-25.3,55.9-25.3c5.4,0,9.6,1.6,12.8,4.8
		c10.3,10.3,3.6,32.8-20.5,68.7c-21.3,31.6-53.5,69.5-90.7,106.8C220.9,259.3,163,303.6,130.2,315.4l-1.6,0.6l0.3,1.6
		c2.7,16.4-3,34.1-15.2,47.2c-1,1.1-6.3,6.6-13.3,11.6C85.7,386.6,69.1,392.1,52.2,392.1z M83.5,293.3c-8.2,0-16.6,2.8-23.8,8
		C45.3,311.5,42,326.4,41.9,327c0,0.1-0.1,0.3-0.1,0.4c-3.7,13.9-10.2,27.6-18.9,39.5l-1.3,1.7l1.8,1.1c8.4,5.2,18.4,7.9,28.8,7.9
		c13.6,0,27.7-4.7,39.7-13.3c6-4.3,10.6-9.2,11.2-9.7c12.7-13.6,15.6-33.5,7-47.2c-4.4-7.1-11.5-11.9-20-13.6
		C88,293.5,85.7,293.3,83.5,293.3z M142.3,241.8c-13.7,19-23.3,35.3-27.8,47.1l-0.5,1.3l1.1,0.9c2.9,2.3,5.6,5.7,7.6,9.4
		c0.1,0.1,0.1,0.2,0.1,0.2l0.8,1.4l1.5-0.5c11.9-4.2,28.7-14,48.6-28.3l1.9-1.4l-32.1-32.1L142.3,241.8z M171.7,204.4
		c-6.4,7.6-12.6,15.2-18.2,22.4l-1.1,1.4l35,35l1.4-1.1c7.3-5.6,14.8-11.7,22.5-18.2l1.7-1.4l-39.8-39.8L171.7,204.4z M376.1,36.4
		c-4.5,0-18.6,2.5-52,25.6c-30,20.8-65.7,51.4-100.5,86.2c-13.9,13.9-27.2,28.1-39.8,42.3l-1.2,1.4l41.3,41.3l1.4-1.2
		c14-12.4,28.2-25.7,42.2-39.8c34.8-34.8,65.4-70.5,86.2-100.5c25.4-36.8,26-50.1,25.5-53.4l-0.2-1.5l-1.5-0.2
		C377,36.5,376.6,36.4,376.1,36.4z"/>
</g>
<g>
	<path class="st0" d="M66.1,359.5c-3.3,0-6.1-2.2-6.9-5.4c-1-3.8,1.3-7.8,5.1-8.8c4.3-1.1,8.3-3,12.1-5.7c2.4-1.7,4.7-3.9,5.6-4.8
		c0.5-0.5,0.9-1.1,1.2-1.7c1.3-2.3,3.7-3.7,6.3-3.7c1.2,0,2.4,0.3,3.5,0.9c3.5,1.9,4.7,6.3,2.8,9.8c-0.9,1.6-2,3.1-3.2,4.5l0,0
		c0,0-4.5,4.4-7.8,6.8c-5.2,3.7-10.8,6.4-16.8,7.9C67.3,359.4,66.7,359.5,66.1,359.5z"/>
</g>
</svg>
