<?xml version="1.0" encoding="utf-8"?>
<!-- Generator: Adobe Illustrator 22.0.1, SVG Export Plug-In . SVG Version: 6.00 Build 0)  -->
<svg version="1.1" id="Layer_1" xmlns="http://www.w3.org/2000/svg" xmlns:xlink="http://www.w3.org/1999/xlink" x="0px" y="0px"
	 viewBox="0 0 251.6 61.3" style="enable-background:new 0 0 251.6 61.3;" xml:space="preserve">
<g>
	<path d="M247.1,18.1c0.6,0,0.9,0,1-0.6c0.1-0.5-0.4-0.5-0.9-0.5h-1.1l-0.2,0.9L247.1,18.1L247.1,18.1z M248.6,21.2h-1.2l-0.8-2.1
		h-0.8l-0.4,2.1h-1l0.8-5h2.5c1,0,1.6,0.4,1.4,1.5c-0.1,0.8-0.7,1.3-1.3,1.3L248.6,21.2z M250.3,18.7c0.4-2.1-0.9-3.5-2.9-3.5
		c-2.1,0-3.7,1.4-4.1,3.5c-0.3,2.1,0.9,3.5,2.9,3.5C248.3,22.2,250,20.9,250.3,18.7 M242.1,18.7c0.4-2.6,2.8-4.7,5.5-4.7
		s4.4,2.1,4,4.7c-0.4,2.6-2.8,4.7-5.5,4.7C243.4,23.4,241.6,21.4,242.1,18.7"/>
	<path d="M27.6,27.6l-2.9,12.6h10.3C34,47,17.3,49.9,19.8,33.4C21.6,22,36,15.8,39.2,24.7l17.6-4.3C50.7-6,3.9-0.7,0.2,34.5
		c-1.8,17.1,11,26.5,25.8,26.2c10.6-0.2,18.9-4,23-6.9l6.1-26.2C55.1,27.6,27.6,27.6,27.6,27.6z"/>
	<polygon points="59.8,22.8 51.2,59.2 69.1,59.2 77.6,22.8 	"/>
	<polygon points="86.2,0 72.3,59.2 90.1,59.2 104.1,0 	"/>
	<polygon points="81.7,6 63.9,5.9 60.6,19.3 79.6,14.6 	"/>
	<path d="M141.3,35.9l-9.9-0.1C132.9,30.7,142.1,29.6,141.3,35.9 M207.4,28.5c0.7-2.6,1.4-5.8,1.4-5.8h-6.1l3.8-15.9h-17.9
		l-3.8,15.9h-3.3l3.8-15.9h-17.9l-3.7,15.9h-5.4l-2.4,9.7c-2-8.4-9.9-12.4-17.4-12.4c-10.2,0-18.1,6.5-21.7,15.4l8.3-35.4h-17.9
		l-14,59.3h17.9l3.7-15.6c-0.4,6.7,2.6,17.5,18,17.5c8,0,18.4-5.3,20.9-12.6l-14-2.5c-1.6,2.1-3.9,3.2-6.2,3.2
		c-3.9,0-4.9-3.3-4.2-6.2h26c0.3-0.9,0.9-1.9,1-5c0.1-0.9,0-1.9,0-2.7h4.3L155,59.4h18l5.7-23.9h3.2l-5.6,23.9h17.9l5.7-23.9h3.5
		 M227.7,36h-9.9C219.4,30.9,228.5,29.7,227.7,36 M203.3,35.4C203.3,35.4,203.3,35.5,203.3,35.4c-0.9,2.2-1.5,4.4-1.8,6.8l0,0
		c-0.9,6.4,1.2,19,17.9,19c8,0,18.4-5.3,20.9-12.6l-14-2.5c-1.6,2-3.9,3.2-6.2,3.2c-3.9,0-4.9-3.3-4.2-6.2l0,0h26
		c0.2-0.9,0.8-1.9,0.9-5.1c0.9-12.4-8.9-18-17.9-18c-7.3,0-13.4,3.3-17.6,8.4"/>
</g>
</svg>
