<?xml version="1.0" encoding="utf-8"?>
<!-- Generator: Adobe Illustrator 22.0.1, SVG Export Plug-In . SVG Version: 6.00 Build 0)  -->
<svg version="1.1" id="Layer_1" xmlns="http://www.w3.org/2000/svg" xmlns:xlink="http://www.w3.org/1999/xlink" x="0px" y="0px"
	 viewBox="0 0 98.3 116.7" style="enable-background:new 0 0 98.3 116.7;" xml:space="preserve">
<style type="text/css">
	.st0{fill:#222F3E;}
	.st1{opacity:0.6;fill:url(#SVGID_1_);}
	.st2{opacity:0.6;fill:url(#SVGID_2_);}
	.st3{opacity:0.6;fill:url(#SVGID_3_);}
	.st4{opacity:0.6;fill:url(#SVGID_4_);}
</style>
<path class="st0" d="M91.7,74.4C91.8,74.4,91.8,74.3,91.7,74.4C91.8,74.3,91.8,74.3,91.7,74.4c8.7-8.8,8.7-22.8,0-31.5l-7.5-7.5
	l-3.7-3.7c0,0,0,0,0,0c-8.7-8.6-22.7-8.6-31.4,0l-7.5,7.5L30.1,50.6c-3.1,3.1-3.1,8,0,11.1c3.1,3.1,8,3.1,11.1,0l11.4-11.4l0,0
	l6.6-6.6c3.1-3.1,8-3.1,11.1,0l0,0l7.5,7.5l0,0l1.9,1.9c3.1,3.1,3.1,8,0,11.1l0,0l-7.5,7.5l-6.6,6.6l-27.6,27.6l11.1,11.1L91.7,74.4
	z"/>
<g>
	<path class="st0" d="M6.4,42.8c-8.6,8.7-8.6,22.7,0,31.4l7.5,7.5l3.7,3.7c0,0,0,0,0,0c8.7,8.6,22.7,8.6,31.4,0l7.5-7.5l11.4-11.4
		c3.1-3.1,3.1-8,0-11.1c-3.1-3.1-8-3.1-11.1,0L45.5,66.8l0,0l-6.6,6.6c-3.1,3.1-8,3.1-11.1,0l0,0l-7.5-7.5l0,0L18.5,64
		c-3.1-3.1-3.1-8,0-11.1l0,0l7.5-7.5l6.6-6.6l27.6-27.6L49.1,0.2L6.4,42.8z"/>
</g>
<linearGradient id="SVGID_1_" gradientUnits="userSpaceOnUse" x1="27.955" y1="51.0809" x2="98.4053" y2="51.0809" gradientTransform="matrix(1 0 0 1 -9.990400e-02 -3.795527e-02)">
	<stop  offset="0" style="stop-color:#000000"/>
	<stop  offset="1" style="stop-color:#000000;stop-opacity:0"/>
</linearGradient>
<path class="st1" d="M79.3,49.6l-1.9-1.9l0,0L70,40.2l0,0c-3.1-3.1-8.2-2.9-11.5,0.4l-7.1,7.1l0,0L39.1,60c-2.3,2.3-5.6,3.1-8.4,2.3
	c3.1,2.5,7.7,2.4,10.5-0.5l11.4-11.4l0,0l6.6-6.6c3.1-3.1,8-3.1,11.1,0l0,0l7.5,7.5l0,0l1.9,1.9c0.8,0.8,1.4,1.7,1.7,2.7
	C81.7,53.5,81,51.2,79.3,49.6z"/>
<linearGradient id="SVGID_2_" gradientUnits="userSpaceOnUse" x1="25.2044" y1="86.8958" x2="98.4058" y2="86.8958" gradientTransform="matrix(1 0 0 1 -9.990400e-02 -3.795527e-02)">
	<stop  offset="0" style="stop-color:#000000"/>
	<stop  offset="1" style="stop-color:#000000;stop-opacity:0"/>
</linearGradient>
<path class="st2" d="M91.1,71.1C91.1,71.1,91.1,71.2,91.1,71.1C91,71.2,91,71.2,91.1,71.1L47.2,115l1.9,1.9l42.6-42.6c0,0,0,0,0,0
	c0,0,0,0,0,0c4.8-4.8,6.9-11.2,6.4-17.5C97.6,61.9,95.2,67,91.1,71.1z"/>
<linearGradient id="SVGID_3_" gradientUnits="userSpaceOnUse" x1="36.2041" y1="41.3026" x2="30.7086" y2="82.7302" gradientTransform="matrix(1 0 0 1 -9.990400e-02 -3.795527e-02)">
	<stop  offset="0" style="stop-color:#000000"/>
	<stop  offset="1" style="stop-color:#000000;stop-opacity:0"/>
</linearGradient>
<path class="st3" d="M25.3,41.5l-8.4,8.4l0,0c-3.4,3.5-3.8,8.7-0.7,11.8l1.9,1.9l0,0l0.1,0.1c-2.7-3.1-2.6-7.8,0.3-10.7l0,0l7.5-7.5
	l6.6-6.6l27.6-27.6L57.8,9L32.7,34.1L25.3,41.5z"/>
<linearGradient id="SVGID_4_" gradientUnits="userSpaceOnUse" x1="51.217" y1="47.4206" x2="46.6364" y2="81.9516" gradientTransform="matrix(1 0 0 1 -9.990400e-02 -3.795527e-02)">
	<stop  offset="0" style="stop-color:#000000"/>
	<stop  offset="1" style="stop-color:#000000;stop-opacity:0"/>
</linearGradient>
<path class="st4" d="M49.1,85.5l7.5-7.5l11.4-11.4c2-2,2.7-4.7,2.1-7.2c-0.4,0.7-0.9,1.3-1.5,1.9L55.9,74l-8.5,8.5
	C40.9,89,32.1,91.6,24.3,90C32.5,93.7,42.4,92.2,49.1,85.5z"/>
</svg>
